HIERARCHY
ROOT root
{
	OFFSET 0.000000 0.000000 0.000000
	CHANNELS 6 Xposition Yposition Zposition Zrotation Yrotation Xrotation
	JOINT lhip
	{
		OFFSET 0.058581 -0.082280 -0.017664
		CHANNELS 3 Zrotation Yrotation Xrotation
		JOINT lknee
		{
			OFFSET 0.043451 -0.386469 0.008037
			CHANNELS 3 Zrotation Yrotation Xrotation
			JOINT lankle
			{
				OFFSET -0.014790 -0.426874 -0.037428
				CHANNELS 3 Zrotation Yrotation Xrotation
				JOINT ltoe
				{
					OFFSET 0.041054 -0.060286 0.122042
					CHANNELS 3 Zrotation Yrotation Xrotation
					End Site
					{
						OFFSET 0.000000 0.000000 0.000000
					}
				}
			}
		}
	}
	JOINT rhip
	{
		OFFSET -0.060310 -0.090513 -0.013543
		CHANNELS 3 Zrotation Yrotation Xrotation
		JOINT rknee
		{
			OFFSET -0.043257 -0.383688 -0.004843
			CHANNELS 3 Zrotation Yrotation Xrotation
			JOINT rankle
			{
				OFFSET 0.019056 -0.420046 -0.034562
				CHANNELS 3 Zrotation Yrotation Xrotation
				JOINT rtoe
				{
					OFFSET -0.034840 -0.062106 0.130323
					CHANNELS 3 Zrotation Yrotation Xrotation
					End Site
					{
						OFFSET 0.000000 0.000000 0.000000
					}
				}
			}
		}
	}
	JOINT lowerback
	{
		OFFSET 0.004439 0.124404 -0.038385
		CHANNELS 3 Zrotation Yrotation Xrotation
		JOINT upperback
		{
			OFFSET 0.004488 0.137956 0.026820
			CHANNELS 3 Zrotation Yrotation Xrotation
			JOINT chest
			{
				OFFSET -0.002265 0.056032 0.002855
				CHANNELS 3 Zrotation Yrotation Xrotation
				JOINT lowerneck
				{
					OFFSET -0.013390 0.211636 -0.033468
					CHANNELS 3 Zrotation Yrotation Xrotation
					JOINT upperneck
					{
						OFFSET 0.010113 0.088937 0.050410
						CHANNELS 3 Zrotation Yrotation Xrotation
						End Site
						{
							OFFSET 0.000000 0.000000 0.000000
						}
					}
				}
				JOINT lclavicle
				{
					OFFSET 0.071702 0.114000 -0.018898
					CHANNELS 3 Zrotation Yrotation Xrotation
					JOINT lshoulder
					{
						OFFSET 0.122921 0.045205 -0.019046
						CHANNELS 3 Zrotation Yrotation Xrotation
						JOINT lelbow
						{
							OFFSET 0.255332 -0.015649 -0.022946
							CHANNELS 3 Zrotation Yrotation Xrotation
							JOINT lwrist
							{
								OFFSET 0.265709 0.012698 -0.007375
								CHANNELS 3 Zrotation Yrotation Xrotation
								End Site
								{
									OFFSET 0.000000 0.000000 0.000000
								}
							}
						}
					}
				}
				JOINT rclavicle
				{
					OFFSET -0.082954 0.112472 -0.023707
					CHANNELS 3 Zrotation Yrotation Xrotation
					JOINT rshoulder
					{
						OFFSET -0.113228 0.046853 -0.008472
						CHANNELS 3 Zrotation Yrotation Xrotation
						JOINT relbow
						{
							OFFSET -0.260127 -0.014369 -0.031269
							CHANNELS 3 Zrotation Yrotation Xrotation
							JOINT rwrist
							{
								OFFSET -0.269108 0.006794 -0.006027
								CHANNELS 3 Zrotation Yrotation Xrotation
								End Site
								{
									OFFSET 0.000000 0.000000 0.000000
								}
							}
						}
					}
				}
			}
		}
	}
}
MOTION
Frames: 7
Frame Time: 0.033333
0.352525 -0.417849 0.959065 -175.797125 0.822285 91.933645 8.963022 -0.441459 -19.727715 -6.504350 -6.220143 20.584897 1.943996 2.595003 -9.484090 0.000000 -0.000000 0.000000 -8.172952 -6.633704 -17.945649 0.460402 -4.469325 18.365023 2.922548 -2.550280 -7.793795 0.000000 -0.000000 0.000000 2.436026 4.172616 18.099485 3.014430 -3.619414 4.801597 1.356486 0.120576 -2.572627 3.523442 7.434548 21.497601 5.647195 0.480498 16.238396 -14.673330 -22.572123 3.741982 -77.317219 -27.037602 29.924825 -5.577258 -25.454938 20.587282 -5.807197 9.299620 -38.100542 13.669319 21.502547 5.558573 79.869998 26.657169 23.042935 -12.353285 15.423428 -18.418106 6.261996 -1.803857 -60.485376 
0.352437 -0.418775 0.958732 -175.957204 0.859985 92.017160 9.027148 -0.492596 -19.879826 -6.432327 -5.985666 20.665375 2.134073 2.506354 -9.479575 0.000000 -0.000000 0.000000 -8.188769 -6.475808 -18.054765 0.519368 -4.527647 18.256032 2.950064 -2.533069 -7.638578 0.000000 -0.000000 0.000000 2.472885 4.083209 18.107723 2.902314 -3.738953 4.587080 1.231682 0.038380 -2.429677 3.683204 7.637190 21.450407 5.711020 0.488802 16.639175 -14.581020 -22.717982 4.074376 -77.299037 -27.455074 29.679137 -5.395344 -25.325939 20.638588 -6.686356 8.332170 -38.256113 13.517427 21.063755 5.656279 80.120313 26.797868 23.099813 -12.484098 15.754962 -18.043823 6.024486 -2.079298 -60.538581 
0.352358 -0.419542 0.958659 -176.194007 0.834381 91.902398 9.021477 -0.419779 -19.755526 -6.469633 -5.936232 20.668444 2.112807 2.573063 -9.534623 0.000000 -0.000000 0.000000 -8.221905 -6.346403 -18.029054 0.514246 -4.447312 18.232668 2.941212 -2.520290 -7.599608 0.000000 -0.000000 0.000000 2.317498 3.891315 18.376358 2.800024 -3.827323 4.469172 1.133339 0.055084 -2.351466 3.765038 7.804938 21.388030 5.709178 0.632659 16.808462 -14.414878 -22.778459 3.976643 -77.362357 -27.547464 29.795708 -5.385042 -25.189550 20.534932 -6.029059 8.241046 -38.401870 13.434324 21.029968 5.542218 80.295586 26.756267 23.351550 -12.630176 15.977828 -18.152007 5.020932 -2.661133 -60.864301 
0.351994 -0.420299 0.958441 -176.317316 0.814647 91.992067 8.982807 -0.466001 -19.920311 -6.419858 -5.850441 20.762803 2.171130 2.570256 -9.529851 0.000000 -0.000000 0.000000 -8.313836 -6.415263 -18.137028 0.635421 -4.429250 18.130747 2.941357 -2.360476 -7.511446 0.000000 -0.000000 0.000000 2.224747 3.874133 18.221792 2.769055 -4.037814 4.508914 1.068907 -0.110637 -2.222312 3.884259 8.109505 21.492363 5.712953 0.735181 16.728801 -14.541098 -22.939790 4.064612 -77.240741 -27.775345 29.763247 -5.148863 -25.008976 20.541050 -6.115434 8.075627 -38.626165 13.434495 20.973395 5.575116 80.346721 26.894358 23.411139 -12.880565 15.953651 -17.986917 4.439581 -2.978262 -61.024684 
0.351885 -0.420610 0.958514 -176.426579 0.868835 91.947931 9.010118 -0.343581 -19.880731 -6.415646 -5.880615 20.783708 2.169447 2.603090 -9.518016 0.000000 -0.000000 0.000000 -8.232598 -6.394023 -18.099776 0.623962 -4.311311 18.047566 2.923941 -2.367241 -7.467272 0.000000 -0.000000 0.000000 2.141788 3.774885 18.322152 2.769225 -4.111161 4.502812 1.132140 -0.146155 -2.250726 3.735165 8.137975 21.580808 5.676562 0.947108 16.730273 -14.643130 -22.921618 3.990075 -77.328190 -27.721014 29.690638 -4.774153 -25.026061 20.363449 -6.093749 8.910515 -38.621736 13.324844 21.016531 5.466203 80.382214 26.825852 23.368565 -12.977463 15.874654 -18.095602 4.609911 -2.866639 -61.241945 
0.351927 -0.420911 0.958446 -176.569876 0.920536 91.941308 9.117930 -0.295591 -19.834646 -6.444466 -5.740222 20.743418 2.167915 2.558159 -9.520938 0.000000 -0.000000 0.000000 -8.176062 -6.320258 -18.093290 0.649409 -4.294839 17.981558 2.925408 -2.295802 -7.405661 0.000000 -0.000000 0.000000 2.084007 3.714472 18.251701 2.743376 -4.220307 4.658339 1.098002 -0.137188 -2.264445 3.808737 8.245632 21.596109 5.586087 0.996162 16.700557 -14.661321 -22.976965 4.047343 -77.268903 -27.937155 29.561817 -4.844840 -24.840577 19.929552 -5.984707 8.743381 -38.007065 13.330510 21.051962 5.500337 80.410601 26.907784 23.349074 -13.027578 15.880620 -18.362407 4.390988 -3.077948 -60.799338 
0.351765 -0.421147 0.958438 -176.605792 0.950350 91.951380 9.140380 -0.326452 -19.871697 -6.417601 -5.706604 20.784896 2.167846 2.581801 -9.554668 0.000000 -0.000000 0.000000 -8.115311 -6.295389 -18.107308 0.617242 -4.260311 17.928275 2.909200 -2.333534 -7.351917 0.000000 -0.000000 0.000000 2.103475 3.687660 18.228057 2.739487 -4.287444 4.669851 1.043764 -0.230756 -2.169856 3.857547 8.355368 21.551324 5.524223 1.032819 16.681475 -14.606642 -22.997110 4.051458 -77.206369 -28.045202 29.571739 -4.919120 -24.892105 20.091962 -6.210548 8.608029 -38.046122 13.352483 20.894286 5.397970 80.554228 26.907332 23.425453 -13.137488 15.872112 -18.560765 4.258459 -3.218607 -60.870715 
